<svg width="2703" height="951" viewBox="0 0 2703 951" fill="none" xmlns="http://www.w3.org/2000/svg">
<g filter="url(#filter0_d_73_2082)">
<g filter="url(#filter1_d_73_2082)">
<path fill-rule="evenodd" clip-rule="evenodd" d="M713.142 81C713.142 78.2326 710.894 75.9916 708.127 76L402.11 76.9309H331.933C193.311 76.9309 124 144.429 124 283.917V387.884V423.941V433.802V457.194C124 595.816 192.444 665.127 331.933 665.127H370.065H481.669H609.176C678.487 665.127 713.142 699.862 713.142 769.093V812.264V868.139C713.142 870.901 715.381 873.139 718.142 873.139H846.764C849.525 873.139 851.764 870.901 851.764 868.139V802.985V734.438C851.764 594.95 783.32 526.425 644.698 526.425L538.132 528.158L390.357 526.425H364.992C298.084 526.425 265.925 495.137 263.663 430.092C262.985 430.126 262.304 430.143 261.618 430.143C239.205 430.143 221.035 411.973 221.035 389.56C221.035 367.146 239.205 348.976 261.618 348.976C261.954 348.976 262.288 348.98 262.622 348.988V319.519C262.622 250.208 297.277 215.553 366.588 215.553H402.11H491.736V178.438C479.739 172.738 471.445 160.51 471.445 146.344C471.445 126.733 487.343 110.834 506.955 110.834C526.567 110.834 542.465 126.733 542.465 146.344C542.465 160.51 534.171 172.738 522.174 178.438V215.553H708.142C710.904 215.553 713.142 213.314 713.142 210.553V81Z" fill="#010101"/>
</g>
<circle cx="401.523" cy="380.445" r="43.5988" fill="#010101"/>
<circle cx="597.327" cy="380.445" r="43.5988" fill="#148DFE"/>
<g filter="url(#filter2_d_73_2082)">
<path fill-rule="evenodd" clip-rule="evenodd" d="M713.142 220.553C713.142 217.791 715.381 215.553 718.142 215.553H846.764C849.525 215.553 851.764 217.791 851.764 220.553V324.55V389.948V417.197V449.896C851.764 564.343 760.201 666.073 624.949 666.073H559.551H469.688H393.947C297.277 666.073 262.622 700.729 262.622 770.04V825.153V869.006C262.622 871.767 260.383 874.006 257.622 874.006H129.792C127.06 874.006 124.834 871.812 124.793 869.081L124 815.958L124.866 736.251C124.866 597.629 192.444 527.452 331.933 527.452L366.588 526.194L568.264 527.927H609.176C675.068 527.927 709.639 495.394 712.889 434.122C714.096 434.222 715.317 434.273 716.55 434.273C740.629 434.273 760.149 414.753 760.149 390.674C760.149 366.596 740.629 347.076 716.55 347.076C715.404 347.076 714.267 347.12 713.142 347.207V324.55V220.553Z" fill="#148DFE"/>
</g>
<path d="M1004.47 672C991.961 672 980.55 669.1 970.233 663.299C959.916 657.498 951.632 649.812 945.379 640.24C939.126 630.669 936 620.227 936 608.916V349.831C936 347.07 938.239 344.831 941 344.831H1002.75C1005.51 344.831 1007.75 347.07 1007.75 349.831V414.662C1007.75 417.424 1009.99 419.662 1012.75 419.662H1103.57C1106.33 419.662 1108.57 421.901 1108.57 424.662V481.227C1108.57 483.989 1106.33 486.227 1103.57 486.227H1012.75C1009.99 486.227 1007.75 488.466 1007.75 491.227V600.435C1007.75 603.196 1009.99 605.435 1012.75 605.435H1103.57C1106.33 605.435 1108.57 607.674 1108.57 610.435V667C1108.57 669.761 1106.33 672 1103.57 672H1004.47Z" fill="#010101"/>
<path d="M1156.69 672C1153.92 672 1151.69 669.761 1151.69 667V482.747C1151.69 471.435 1154.81 460.994 1161.06 451.422C1167.32 441.851 1175.6 434.165 1185.92 428.364C1196.24 422.563 1207.65 419.662 1220.15 419.662H1365.21C1367.98 419.662 1370.21 421.901 1370.21 424.662V481.227C1370.21 483.989 1367.98 486.227 1365.21 486.227H1228.43C1225.67 486.227 1223.43 488.466 1223.43 491.227V667C1223.43 669.761 1221.2 672 1218.43 672H1156.69Z" fill="#010101"/>
<path d="M1975.36 672C1962.86 672 1951.29 669.1 1940.66 663.299C1930.03 657.498 1921.59 649.667 1915.34 639.805C1909.08 629.944 1905.96 619.212 1905.96 607.61V423.143C1905.96 411.251 1909.08 400.52 1915.34 390.948C1921.59 381.087 1930.03 373.255 1940.66 367.455C1951.29 361.654 1962.86 358.753 1975.36 358.753H2174.19C2186.7 358.753 2198.11 361.654 2208.43 367.455C2219.06 373.255 2227.5 381.087 2233.75 390.948C2240.32 400.52 2243.6 411.251 2243.6 423.143V607.61C2243.6 619.212 2240.32 629.944 2233.75 639.805C2227.5 649.667 2219.06 657.498 2208.43 663.299C2198.11 669.1 2186.7 672 2174.19 672H1975.36ZM1978.64 599.13C1978.64 601.891 1980.88 604.13 1983.64 604.13H2164.97C2167.74 604.13 2169.97 601.891 2169.97 599.13V431.623C2169.97 428.862 2167.74 426.623 2164.97 426.623H1983.64C1980.88 426.623 1978.64 428.862 1978.64 431.623V599.13Z" fill="#148DFE"/>
<path d="M2415.6 672C2412.84 672 2410.6 669.761 2410.6 667V431.623C2410.6 428.862 2408.36 426.623 2405.6 426.623H2283.36C2280.6 426.623 2278.36 424.385 2278.36 421.623V363.753C2278.36 360.992 2280.6 358.753 2283.36 358.753H2611C2613.76 358.753 2616 360.992 2616 363.753V421.623C2616 424.385 2613.76 426.623 2611 426.623H2488.76C2486 426.623 2483.76 428.862 2483.76 431.623V667C2483.76 669.761 2481.52 672 2478.76 672H2415.6Z" fill="#148DFE"/>
<path fill-rule="evenodd" clip-rule="evenodd" d="M1412.68 419.662C1409.92 419.662 1407.68 421.901 1407.68 424.662V667C1407.68 669.761 1409.92 672 1412.68 672H1474.43C1477.19 672 1479.43 669.761 1479.43 667V424.662C1479.43 421.901 1477.19 419.662 1474.43 419.662H1412.68Z" fill="#010101"/>
<path d="M1412.68 404C1409.92 404 1407.68 401.761 1407.68 399V342C1407.68 339.239 1409.92 337 1412.68 337H1474.43C1477.19 337 1479.43 339.239 1479.43 342V399C1479.43 401.761 1477.19 404 1474.43 404H1412.68Z" fill="#148DFE"/>
<path fill-rule="evenodd" clip-rule="evenodd" d="M1773.23 336.13C1785.74 336.13 1797.15 339.03 1807.47 344.831C1818.09 350.632 1826.54 358.463 1832.79 368.325C1839.35 377.896 1842.64 388.628 1842.64 400.52V481.877C1842.64 485.647 1842.32 489.273 1841.7 492.753C1841.49 494.894 1841.07 496.969 1840.44 498.978C1839.87 500.794 1840.15 502.797 1841.31 504.301C1845.14 509.239 1848.4 514.816 1851.08 521.032C1854.2 528.284 1855.77 535.535 1855.77 542.786V607.61C1855.77 619.212 1852.48 629.944 1845.92 639.805C1839.67 649.667 1831.22 657.498 1820.6 663.299C1810.28 669.1 1798.71 672 1785.89 672H1523.13C1520.36 672 1518.13 669.761 1518.13 667V424.662C1518.13 421.901 1520.36 419.662 1523.13 419.662H1585.81C1588.57 419.662 1590.81 421.901 1590.81 424.662V473.831C1590.81 476.593 1593.05 478.831 1595.81 478.831H1764.01C1766.77 478.831 1769.01 476.593 1769.01 473.831V408.988C1769.01 406.232 1766.78 403.995 1764.02 403.988L1610.99 403.635C1608.23 403.629 1606 401.392 1606 398.635V341.974C1606 339.223 1608.22 336.988 1610.97 336.974L1773.23 336.13ZM1782.14 599.13C1782.14 601.891 1779.9 604.13 1777.14 604.13H1595.81C1593.05 604.13 1590.81 601.891 1590.81 599.13V551.701C1590.81 548.94 1593.05 546.701 1595.81 546.701H1777.14C1779.9 546.701 1782.14 548.94 1782.14 551.701V599.13Z" fill="#148DFE"/>
<path d="M1590.81 342C1590.81 339.239 1588.57 337 1585.81 337H1523.13C1520.36 337 1518.13 339.239 1518.13 342V399C1518.13 401.761 1520.36 404 1523.13 404H1585.81C1588.57 404 1590.81 401.761 1590.81 399V342Z" fill="#010101"/>
</g>
<defs>
<filter id="filter0_d_73_2082" x="-4" y="0" width="2711" height="959" filterUnits="userSpaceOnUse" color-interpolation-filters="sRGB">
<feFlood flood-opacity="0" result="BackgroundImageFix"/>
<feColorMatrix in="SourceAlpha" type="matrix" values="0 0 0 0 0 0 0 0 0 0 0 0 0 0 0 0 0 0 127 0" result="hardAlpha"/>
<feOffset dy="4"/>
<feGaussianBlur stdDeviation="2"/>
<feComposite in2="hardAlpha" operator="out"/>
<feColorMatrix type="matrix" values="0 0 0 0 0 0 0 0 0 0 0 0 0 0 0 0 0 0 0.25 0"/>
<feBlend mode="normal" in2="BackgroundImageFix" result="effect1_dropShadow_73_2082"/>
<feBlend mode="normal" in="SourceGraphic" in2="effect1_dropShadow_73_2082" result="shape"/>
</filter>
<filter id="filter1_d_73_2082" x="120" y="76" width="735.764" height="805.139" filterUnits="userSpaceOnUse" color-interpolation-filters="sRGB">
<feFlood flood-opacity="0" result="BackgroundImageFix"/>
<feColorMatrix in="SourceAlpha" type="matrix" values="0 0 0 0 0 0 0 0 0 0 0 0 0 0 0 0 0 0 127 0" result="hardAlpha"/>
<feOffset dy="4"/>
<feGaussianBlur stdDeviation="2"/>
<feComposite in2="hardAlpha" operator="out"/>
<feColorMatrix type="matrix" values="0 0 0 0 0 0 0 0 0 0 0 0 0 0 0 0 0 0 0.25 0"/>
<feBlend mode="normal" in2="BackgroundImageFix" result="effect1_dropShadow_73_2082"/>
<feBlend mode="normal" in="SourceGraphic" in2="effect1_dropShadow_73_2082" result="shape"/>
</filter>
<filter id="filter2_d_73_2082" x="120" y="215.553" width="735.764" height="666.453" filterUnits="userSpaceOnUse" color-interpolation-filters="sRGB">
<feFlood flood-opacity="0" result="BackgroundImageFix"/>
<feColorMatrix in="SourceAlpha" type="matrix" values="0 0 0 0 0 0 0 0 0 0 0 0 0 0 0 0 0 0 127 0" result="hardAlpha"/>
<feOffset dy="4"/>
<feGaussianBlur stdDeviation="2"/>
<feComposite in2="hardAlpha" operator="out"/>
<feColorMatrix type="matrix" values="0 0 0 0 0 0 0 0 0 0 0 0 0 0 0 0 0 0 0.25 0"/>
<feBlend mode="normal" in2="BackgroundImageFix" result="effect1_dropShadow_73_2082"/>
<feBlend mode="normal" in="SourceGraphic" in2="effect1_dropShadow_73_2082" result="shape"/>
</filter>
</defs>
</svg>